<mxfile host="app.diagrams.net" modified="2021-10-13T09:42:42.812Z" agent="5.0 (Macintosh; Intel Mac OS X 10_14_6) AppleWebKit/537.36 (KHTML, like Gecko) Chrome/94.0.4606.81 Safari/537.36" etag="RpWXHD5pum15n-hlqcSA" version="14.8.1" type="github">
  <diagram id="yJ3446bDnbzs7p9pd-vA" name="第 1 页">
    <mxGraphModel dx="815" dy="426" grid="1" gridSize="10" guides="1" tooltips="1" connect="1" arrows="1" fold="1" page="1" pageScale="1" pageWidth="827" pageHeight="1169" math="0" shadow="0">
      <root>
        <mxCell id="0" />
        <mxCell id="1" parent="0" />
        <mxCell id="_L43QnnKGOCju21VZ0w4-1" value="审核人员" style="swimlane;html=1;startSize=20;fillColor=#ffe6cc;strokeColor=#d79b00;" parent="1" vertex="1">
          <mxGeometry x="70" y="830" width="160" height="960" as="geometry" />
        </mxCell>
        <mxCell id="_L43QnnKGOCju21VZ0w4-2" value="" style="rounded=1;whiteSpace=wrap;html=1;shadow=0;labelBackgroundColor=none;strokeWidth=1;fontFamily=Verdana;fontSize=8;align=center;" parent="_L43QnnKGOCju21VZ0w4-1" vertex="1">
          <mxGeometry x="27.5" y="90" width="100" height="60" as="geometry" />
        </mxCell>
        <mxCell id="_L43QnnKGOCju21VZ0w4-3" value="运营" style="shape=umlActor;verticalLabelPosition=bottom;verticalAlign=top;html=1;outlineConnect=0;" parent="_L43QnnKGOCju21VZ0w4-1" vertex="1">
          <mxGeometry x="65" y="98" width="25" height="30" as="geometry" />
        </mxCell>
        <mxCell id="_L43QnnKGOCju21VZ0w4-5" value="前置校验" style="swimlane;html=1;startSize=20;fillColor=#dae8fc;strokeColor=#6c8ebf;" parent="1" vertex="1">
          <mxGeometry x="230" y="830" width="200" height="960" as="geometry" />
        </mxCell>
        <mxCell id="_L43QnnKGOCju21VZ0w4-6" value="Y" style="edgeStyle=orthogonalEdgeStyle;rounded=0;orthogonalLoop=1;jettySize=auto;html=1;exitX=0.5;exitY=1;exitDx=0;exitDy=0;entryX=0.5;entryY=0;entryDx=0;entryDy=0;" parent="_L43QnnKGOCju21VZ0w4-5" source="_L43QnnKGOCju21VZ0w4-8" target="_L43QnnKGOCju21VZ0w4-10" edge="1">
          <mxGeometry relative="1" as="geometry" />
        </mxCell>
        <mxCell id="_L43QnnKGOCju21VZ0w4-7" style="edgeStyle=orthogonalEdgeStyle;rounded=0;orthogonalLoop=1;jettySize=auto;html=1;exitX=1;exitY=0.5;exitDx=0;exitDy=0;entryX=0.5;entryY=0;entryDx=0;entryDy=0;" parent="_L43QnnKGOCju21VZ0w4-5" source="_L43QnnKGOCju21VZ0w4-8" target="_L43QnnKGOCju21VZ0w4-18" edge="1">
          <mxGeometry relative="1" as="geometry" />
        </mxCell>
        <mxCell id="_L43QnnKGOCju21VZ0w4-8" value="查询是否有动作参数" style="rhombus;whiteSpace=wrap;html=1;fillColor=#fff2cc;strokeColor=#d6b656;" parent="_L43QnnKGOCju21VZ0w4-5" vertex="1">
          <mxGeometry x="30" y="90" width="70" height="60" as="geometry" />
        </mxCell>
        <mxCell id="_L43QnnKGOCju21VZ0w4-9" value="Y" style="edgeStyle=orthogonalEdgeStyle;rounded=0;orthogonalLoop=1;jettySize=auto;html=1;exitX=0.5;exitY=1;exitDx=0;exitDy=0;entryX=0.5;entryY=0;entryDx=0;entryDy=0;" parent="_L43QnnKGOCju21VZ0w4-5" source="_L43QnnKGOCju21VZ0w4-10" target="_L43QnnKGOCju21VZ0w4-13" edge="1">
          <mxGeometry relative="1" as="geometry" />
        </mxCell>
        <mxCell id="_L43QnnKGOCju21VZ0w4-45" value="N" style="edgeStyle=orthogonalEdgeStyle;rounded=0;orthogonalLoop=1;jettySize=auto;html=1;exitX=1;exitY=0.5;exitDx=0;exitDy=0;entryX=0.5;entryY=0;entryDx=0;entryDy=0;" parent="_L43QnnKGOCju21VZ0w4-5" source="_L43QnnKGOCju21VZ0w4-10" target="_L43QnnKGOCju21VZ0w4-18" edge="1">
          <mxGeometry relative="1" as="geometry" />
        </mxCell>
        <mxCell id="_L43QnnKGOCju21VZ0w4-10" value="查询该记录的动作处置状态" style="rhombus;whiteSpace=wrap;html=1;fillColor=#fff2cc;strokeColor=#d6b656;" parent="_L43QnnKGOCju21VZ0w4-5" vertex="1">
          <mxGeometry x="30" y="180" width="70" height="60" as="geometry" />
        </mxCell>
        <mxCell id="_L43QnnKGOCju21VZ0w4-12" style="edgeStyle=orthogonalEdgeStyle;rounded=0;orthogonalLoop=1;jettySize=auto;html=1;exitX=1;exitY=0.5;exitDx=0;exitDy=0;entryX=0;entryY=0.5;entryDx=0;entryDy=0;" parent="_L43QnnKGOCju21VZ0w4-5" source="_L43QnnKGOCju21VZ0w4-13" target="_L43QnnKGOCju21VZ0w4-18" edge="1">
          <mxGeometry relative="1" as="geometry" />
        </mxCell>
        <mxCell id="_L43QnnKGOCju21VZ0w4-13" value="下一级是否已审核/已处置" style="rhombus;whiteSpace=wrap;html=1;fillColor=#fff2cc;strokeColor=#d6b656;" parent="_L43QnnKGOCju21VZ0w4-5" vertex="1">
          <mxGeometry x="32.5" y="280" width="65" height="60" as="geometry" />
        </mxCell>
        <mxCell id="_L43QnnKGOCju21VZ0w4-18" value="end" style="ellipse;whiteSpace=wrap;html=1;fillColor=#f8cecc;strokeColor=#b85450;" parent="_L43QnnKGOCju21VZ0w4-5" vertex="1">
          <mxGeometry x="130" y="292.5" width="50" height="35" as="geometry" />
        </mxCell>
        <mxCell id="_L43QnnKGOCju21VZ0w4-21" value="过风控规则引擎/执行动作" style="swimlane;html=1;startSize=20;fillColor=#d5e8d4;strokeColor=#82b366;" parent="1" vertex="1">
          <mxGeometry x="430" y="830" width="530" height="960" as="geometry" />
        </mxCell>
        <mxCell id="U5h_Z8CD_JuLQ_sEO2zB-38" style="edgeStyle=orthogonalEdgeStyle;rounded=0;orthogonalLoop=1;jettySize=auto;html=1;exitX=0.5;exitY=1;exitDx=0;exitDy=0;strokeColor=#D6B656;entryX=0.5;entryY=0.114;entryDx=0;entryDy=0;entryPerimeter=0;" edge="1" parent="_L43QnnKGOCju21VZ0w4-21" source="_L43QnnKGOCju21VZ0w4-25" target="U5h_Z8CD_JuLQ_sEO2zB-37">
          <mxGeometry relative="1" as="geometry" />
        </mxCell>
        <mxCell id="_L43QnnKGOCju21VZ0w4-25" value="根据打标id查询该标签业务下对应的动作，若有多个动作，获取高优先级的动作配置" style="rounded=0;whiteSpace=wrap;html=1;fillColor=#ffe6cc;strokeColor=#d79b00;" parent="_L43QnnKGOCju21VZ0w4-21" vertex="1">
          <mxGeometry x="200" y="95" width="120" height="60" as="geometry" />
        </mxCell>
        <mxCell id="_L43QnnKGOCju21VZ0w4-26" value="N" style="edgeStyle=orthogonalEdgeStyle;rounded=0;orthogonalLoop=1;jettySize=auto;html=1;exitX=1;exitY=0.5;exitDx=0;exitDy=0;" parent="_L43QnnKGOCju21VZ0w4-21" source="_L43QnnKGOCju21VZ0w4-27" edge="1">
          <mxGeometry relative="1" as="geometry">
            <mxPoint x="200" y="125" as="targetPoint" />
          </mxGeometry>
        </mxCell>
        <mxCell id="_L43QnnKGOCju21VZ0w4-46" value="Y" style="edgeStyle=orthogonalEdgeStyle;rounded=0;orthogonalLoop=1;jettySize=auto;html=1;exitX=0.5;exitY=1;exitDx=0;exitDy=0;entryX=0.5;entryY=0;entryDx=0;entryDy=0;" parent="_L43QnnKGOCju21VZ0w4-21" source="_L43QnnKGOCju21VZ0w4-27" target="_L43QnnKGOCju21VZ0w4-32" edge="1">
          <mxGeometry relative="1" as="geometry" />
        </mxCell>
        <mxCell id="_L43QnnKGOCju21VZ0w4-27" value="查询该动作-业务配置表判断是否要过风控规则引擎" style="rhombus;whiteSpace=wrap;html=1;strokeColor=#d6b656;fillColor=#D6B656;" parent="_L43QnnKGOCju21VZ0w4-21" vertex="1">
          <mxGeometry x="40" y="90" width="100" height="70" as="geometry" />
        </mxCell>
        <mxCell id="_L43QnnKGOCju21VZ0w4-28" style="edgeStyle=orthogonalEdgeStyle;rounded=0;orthogonalLoop=1;jettySize=auto;html=1;exitX=0.5;exitY=1;exitDx=0;exitDy=0;entryX=0.5;entryY=0;entryDx=0;entryDy=0;" parent="_L43QnnKGOCju21VZ0w4-21" source="_L43QnnKGOCju21VZ0w4-29" target="_L43QnnKGOCju21VZ0w4-31" edge="1">
          <mxGeometry relative="1" as="geometry" />
        </mxCell>
        <mxCell id="_L43QnnKGOCju21VZ0w4-29" value="监听风控规则消息，&lt;br&gt;返回是否要执行动作和流转" style="rounded=0;whiteSpace=wrap;html=1;fillColor=#ffe6cc;strokeColor=#d79b00;" parent="_L43QnnKGOCju21VZ0w4-21" vertex="1">
          <mxGeometry x="33" y="320" width="120" height="60" as="geometry" />
        </mxCell>
        <mxCell id="_L43QnnKGOCju21VZ0w4-52" style="edgeStyle=orthogonalEdgeStyle;rounded=0;orthogonalLoop=1;jettySize=auto;html=1;exitX=0.5;exitY=1;exitDx=0;exitDy=0;entryX=0.5;entryY=0;entryDx=0;entryDy=0;strokeWidth=1;" parent="_L43QnnKGOCju21VZ0w4-21" source="_L43QnnKGOCju21VZ0w4-31" target="_L43QnnKGOCju21VZ0w4-50" edge="1">
          <mxGeometry relative="1" as="geometry" />
        </mxCell>
        <mxCell id="_L43QnnKGOCju21VZ0w4-31" value="根据action_id查询动作配置表" style="rounded=0;whiteSpace=wrap;html=1;fillColor=#ffe6cc;strokeColor=#d79b00;" parent="_L43QnnKGOCju21VZ0w4-21" vertex="1">
          <mxGeometry x="33" y="430" width="120" height="60" as="geometry" />
        </mxCell>
        <mxCell id="_L43QnnKGOCju21VZ0w4-32" value="&lt;span&gt;拼接消息，发给风控规则引擎&lt;/span&gt;" style="shape=dataStorage;whiteSpace=wrap;html=1;fixedSize=1;fillColor=#ffe6cc;strokeColor=#d79b00;" parent="_L43QnnKGOCju21VZ0w4-21" vertex="1">
          <mxGeometry x="40" y="210" width="100" height="50" as="geometry" />
        </mxCell>
        <mxCell id="U5h_Z8CD_JuLQ_sEO2zB-26" style="edgeStyle=orthogonalEdgeStyle;rounded=0;orthogonalLoop=1;jettySize=auto;html=1;exitX=0.5;exitY=1;exitDx=0;exitDy=0;entryX=0.5;entryY=0;entryDx=0;entryDy=0;" edge="1" parent="_L43QnnKGOCju21VZ0w4-21" source="_L43QnnKGOCju21VZ0w4-34" target="U5h_Z8CD_JuLQ_sEO2zB-22">
          <mxGeometry relative="1" as="geometry" />
        </mxCell>
        <mxCell id="_L43QnnKGOCju21VZ0w4-34" value="根据&lt;span&gt;action_order字段顺序&lt;/span&gt;&lt;span&gt;遍历执行对应的动作&lt;/span&gt;" style="rounded=0;whiteSpace=wrap;html=1;strokeColor=#B09500;fontColor=#000000;fillColor=#E3C800;" parent="_L43QnnKGOCju21VZ0w4-21" vertex="1">
          <mxGeometry x="200" y="460" width="120" height="60" as="geometry" />
        </mxCell>
        <mxCell id="_L43QnnKGOCju21VZ0w4-50" value="遍历执行对应的动作" style="rounded=0;whiteSpace=wrap;html=1;fillColor=#e3c800;strokeColor=#B09500;fontColor=#000000;" parent="_L43QnnKGOCju21VZ0w4-21" vertex="1">
          <mxGeometry x="33" y="565" width="120" height="60" as="geometry" />
        </mxCell>
        <mxCell id="_L43QnnKGOCju21VZ0w4-51" value="更新audit_detail表&lt;br&gt;更新es动作相关字段&lt;br&gt;更新operate_log表" style="rounded=0;whiteSpace=wrap;html=1;fillColor=#e3c800;strokeColor=#B09500;fontColor=#000000;" parent="_L43QnnKGOCju21VZ0w4-21" vertex="1">
          <mxGeometry x="170" y="750" width="120" height="60" as="geometry" />
        </mxCell>
        <mxCell id="_L43QnnKGOCju21VZ0w4-49" style="edgeStyle=orthogonalEdgeStyle;rounded=0;orthogonalLoop=1;jettySize=auto;html=1;exitX=0.5;exitY=1;exitDx=0;exitDy=0;entryX=0.5;entryY=0;entryDx=0;entryDy=0;fillColor=#e3c800;strokeColor=#B09500;startArrow=none;" parent="_L43QnnKGOCju21VZ0w4-21" source="YV3tWDn8nTRbXY4S43q--11" target="_L43QnnKGOCju21VZ0w4-51" edge="1">
          <mxGeometry relative="1" as="geometry" />
        </mxCell>
        <mxCell id="YV3tWDn8nTRbXY4S43q--16" value="" style="line;strokeWidth=3;html=1;perimeter=backbonePerimeter;points=[];outlineConnect=0;dashed=1;fillColor=#e3c800;strokeColor=#B09500;fontColor=#000000;" parent="_L43QnnKGOCju21VZ0w4-21" vertex="1">
          <mxGeometry x="170" y="170" width="310" height="10" as="geometry" />
        </mxCell>
        <mxCell id="YV3tWDn8nTRbXY4S43q--17" value="" style="line;strokeWidth=3;direction=south;html=1;perimeter=backbonePerimeter;points=[];outlineConnect=0;dashed=1;fillColor=#e3c800;strokeColor=#B09500;fontColor=#000000;" parent="_L43QnnKGOCju21VZ0w4-21" vertex="1">
          <mxGeometry x="170" y="180" width="10" height="330" as="geometry" />
        </mxCell>
        <mxCell id="YV3tWDn8nTRbXY4S43q--19" value="" style="line;strokeWidth=3;direction=south;html=1;perimeter=backbonePerimeter;points=[];outlineConnect=0;dashed=1;fillColor=#e3c800;strokeColor=#B09500;fontColor=#000000;" parent="_L43QnnKGOCju21VZ0w4-21" vertex="1">
          <mxGeometry x="20" y="510" width="10" height="320" as="geometry" />
        </mxCell>
        <mxCell id="U5h_Z8CD_JuLQ_sEO2zB-36" style="edgeStyle=orthogonalEdgeStyle;rounded=0;orthogonalLoop=1;jettySize=auto;html=1;exitX=0.5;exitY=1;exitDx=0;exitDy=0;entryX=0.5;entryY=0;entryDx=0;entryDy=0;strokeColor=#D6B656;" edge="1" parent="_L43QnnKGOCju21VZ0w4-21" source="U5h_Z8CD_JuLQ_sEO2zB-16" target="U5h_Z8CD_JuLQ_sEO2zB-18">
          <mxGeometry relative="1" as="geometry" />
        </mxCell>
        <mxCell id="U5h_Z8CD_JuLQ_sEO2zB-16" value="获取动作-业务配置表中对应动作action_i的执行方式&lt;br&gt;action_order方式" style="rounded=0;whiteSpace=wrap;html=1;fillColor=#e3c800;strokeColor=#B09500;fontColor=#000000;" vertex="1" parent="_L43QnnKGOCju21VZ0w4-21">
          <mxGeometry x="200" y="270" width="120" height="60" as="geometry" />
        </mxCell>
        <mxCell id="U5h_Z8CD_JuLQ_sEO2zB-20" value="N" style="edgeStyle=orthogonalEdgeStyle;rounded=0;orthogonalLoop=1;jettySize=auto;html=1;" edge="1" parent="_L43QnnKGOCju21VZ0w4-21" source="U5h_Z8CD_JuLQ_sEO2zB-18" target="U5h_Z8CD_JuLQ_sEO2zB-19">
          <mxGeometry relative="1" as="geometry" />
        </mxCell>
        <mxCell id="U5h_Z8CD_JuLQ_sEO2zB-21" value="Y" style="edgeStyle=orthogonalEdgeStyle;rounded=0;orthogonalLoop=1;jettySize=auto;html=1;exitX=0.5;exitY=1;exitDx=0;exitDy=0;entryX=0.5;entryY=0;entryDx=0;entryDy=0;" edge="1" parent="_L43QnnKGOCju21VZ0w4-21" source="U5h_Z8CD_JuLQ_sEO2zB-18" target="_L43QnnKGOCju21VZ0w4-34">
          <mxGeometry relative="1" as="geometry" />
        </mxCell>
        <mxCell id="U5h_Z8CD_JuLQ_sEO2zB-18" value="执行方式是串行" style="rhombus;whiteSpace=wrap;html=1;strokeColor=#d6b656;fillColor=#E3C800;" vertex="1" parent="_L43QnnKGOCju21VZ0w4-21">
          <mxGeometry x="210" y="360" width="100" height="70" as="geometry" />
        </mxCell>
        <mxCell id="U5h_Z8CD_JuLQ_sEO2zB-27" style="edgeStyle=orthogonalEdgeStyle;rounded=0;orthogonalLoop=1;jettySize=auto;html=1;exitX=0.5;exitY=1;exitDx=0;exitDy=0;entryX=0.5;entryY=0;entryDx=0;entryDy=0;" edge="1" parent="_L43QnnKGOCju21VZ0w4-21" source="U5h_Z8CD_JuLQ_sEO2zB-19" target="U5h_Z8CD_JuLQ_sEO2zB-22">
          <mxGeometry relative="1" as="geometry" />
        </mxCell>
        <mxCell id="U5h_Z8CD_JuLQ_sEO2zB-19" value="开启线程池并行执行&lt;br&gt;子动作" style="whiteSpace=wrap;html=1;strokeColor=#d6b656;fillColor=#E3C800;" vertex="1" parent="_L43QnnKGOCju21VZ0w4-21">
          <mxGeometry x="350" y="460" width="120" height="60" as="geometry" />
        </mxCell>
        <mxCell id="U5h_Z8CD_JuLQ_sEO2zB-35" style="edgeStyle=orthogonalEdgeStyle;rounded=0;orthogonalLoop=1;jettySize=auto;html=1;exitX=0.5;exitY=1;exitDx=0;exitDy=0;strokeColor=#D6B656;" edge="1" parent="_L43QnnKGOCju21VZ0w4-21">
          <mxGeometry relative="1" as="geometry">
            <mxPoint x="337" y="620" as="sourcePoint" />
            <mxPoint x="230" y="745" as="targetPoint" />
            <Array as="points">
              <mxPoint x="337" y="725" />
              <mxPoint x="230" y="725" />
            </Array>
          </mxGeometry>
        </mxCell>
        <mxCell id="U5h_Z8CD_JuLQ_sEO2zB-22" value="获取配置表的动作参数和对应的业务参数，组装数据，执行动作" style="whiteSpace=wrap;html=1;strokeColor=#d6b656;fillColor=#E3C800;" vertex="1" parent="_L43QnnKGOCju21VZ0w4-21">
          <mxGeometry x="277" y="565" width="120" height="60" as="geometry" />
        </mxCell>
        <mxCell id="YV3tWDn8nTRbXY4S43q--9" value="阻塞等待所有动作执行完成，记录各个动作的状态，存储在&lt;span&gt;reserve3字段里&lt;/span&gt;" style="text;html=1;strokeColor=none;fillColor=none;align=center;verticalAlign=middle;whiteSpace=wrap;rounded=0;" parent="_L43QnnKGOCju21VZ0w4-21" vertex="1">
          <mxGeometry x="290" y="650" width="110" height="60" as="geometry" />
        </mxCell>
        <mxCell id="YV3tWDn8nTRbXY4S43q--11" value="当所有动作都执行成功" style="text;html=1;strokeColor=none;fillColor=none;align=center;verticalAlign=middle;whiteSpace=wrap;rounded=0;" parent="_L43QnnKGOCju21VZ0w4-21" vertex="1">
          <mxGeometry x="53" y="670" width="80" height="30" as="geometry" />
        </mxCell>
        <mxCell id="U5h_Z8CD_JuLQ_sEO2zB-34" value="" style="edgeStyle=orthogonalEdgeStyle;rounded=0;orthogonalLoop=1;jettySize=auto;html=1;exitX=0.5;exitY=1;exitDx=0;exitDy=0;entryX=0.5;entryY=0;entryDx=0;entryDy=0;fillColor=#e3c800;strokeColor=#B09500;endArrow=none;" edge="1" parent="_L43QnnKGOCju21VZ0w4-21" source="_L43QnnKGOCju21VZ0w4-50" target="YV3tWDn8nTRbXY4S43q--11">
          <mxGeometry relative="1" as="geometry">
            <mxPoint x="523" y="1455" as="sourcePoint" />
            <mxPoint x="660" y="1580" as="targetPoint" />
          </mxGeometry>
        </mxCell>
        <mxCell id="U5h_Z8CD_JuLQ_sEO2zB-39" value="N" style="edgeStyle=orthogonalEdgeStyle;rounded=0;orthogonalLoop=1;jettySize=auto;html=1;exitX=0.5;exitY=1;exitDx=0;exitDy=0;entryX=0.5;entryY=0;entryDx=0;entryDy=0;strokeColor=#D6B656;" edge="1" parent="_L43QnnKGOCju21VZ0w4-21" source="U5h_Z8CD_JuLQ_sEO2zB-37" target="U5h_Z8CD_JuLQ_sEO2zB-16">
          <mxGeometry relative="1" as="geometry" />
        </mxCell>
        <mxCell id="U5h_Z8CD_JuLQ_sEO2zB-44" style="edgeStyle=orthogonalEdgeStyle;rounded=0;orthogonalLoop=1;jettySize=auto;html=1;exitX=1;exitY=0.5;exitDx=0;exitDy=0;entryX=0;entryY=0.5;entryDx=0;entryDy=0;strokeColor=#D6B656;" edge="1" parent="_L43QnnKGOCju21VZ0w4-21" source="U5h_Z8CD_JuLQ_sEO2zB-37" target="U5h_Z8CD_JuLQ_sEO2zB-43">
          <mxGeometry relative="1" as="geometry" />
        </mxCell>
        <mxCell id="U5h_Z8CD_JuLQ_sEO2zB-37" value="查询业务动作配置表判断是否是停用" style="rhombus;whiteSpace=wrap;html=1;strokeColor=#d6b656;fillColor=#E3C800;" vertex="1" parent="_L43QnnKGOCju21VZ0w4-21">
          <mxGeometry x="210" y="177" width="100" height="70" as="geometry" />
        </mxCell>
        <mxCell id="U5h_Z8CD_JuLQ_sEO2zB-43" value="end" style="ellipse;whiteSpace=wrap;html=1;fillColor=#E3C800;" vertex="1" parent="_L43QnnKGOCju21VZ0w4-21">
          <mxGeometry x="360" y="189.5" width="80" height="45" as="geometry" />
        </mxCell>
        <mxCell id="_L43QnnKGOCju21VZ0w4-36" value="流转" style="swimlane;html=1;startSize=20;fillColor=#f8cecc;strokeColor=#b85450;" parent="1" vertex="1">
          <mxGeometry x="960" y="830" width="260" height="960" as="geometry" />
        </mxCell>
        <mxCell id="_L43QnnKGOCju21VZ0w4-57" style="edgeStyle=orthogonalEdgeStyle;rounded=0;orthogonalLoop=1;jettySize=auto;html=1;exitX=0.5;exitY=1;exitDx=0;exitDy=0;entryX=0.5;entryY=0;entryDx=0;entryDy=0;strokeWidth=1;" parent="_L43QnnKGOCju21VZ0w4-36" source="_L43QnnKGOCju21VZ0w4-37" target="_L43QnnKGOCju21VZ0w4-56" edge="1">
          <mxGeometry relative="1" as="geometry" />
        </mxCell>
        <mxCell id="_L43QnnKGOCju21VZ0w4-37" value="判断是否要流转" style="rhombus;whiteSpace=wrap;html=1;fillColor=#fff2cc;strokeColor=#d6b656;" parent="_L43QnnKGOCju21VZ0w4-36" vertex="1">
          <mxGeometry x="70" y="90" width="100" height="70" as="geometry" />
        </mxCell>
        <mxCell id="_L43QnnKGOCju21VZ0w4-38" value="新增audit_detail表，下一审记录&lt;br&gt;更新business_record表&lt;br&gt;更新es相关字段&lt;br&gt;更新operate_log表" style="rounded=0;whiteSpace=wrap;html=1;fillColor=#dae8fc;strokeColor=#6c8ebf;align=left;" parent="_L43QnnKGOCju21VZ0w4-36" vertex="1">
          <mxGeometry x="30" y="360" width="180" height="70" as="geometry" />
        </mxCell>
        <mxCell id="_L43QnnKGOCju21VZ0w4-58" style="edgeStyle=orthogonalEdgeStyle;rounded=0;orthogonalLoop=1;jettySize=auto;html=1;exitX=0.5;exitY=1;exitDx=0;exitDy=0;entryX=0.5;entryY=0;entryDx=0;entryDy=0;strokeWidth=1;" parent="_L43QnnKGOCju21VZ0w4-36" source="_L43QnnKGOCju21VZ0w4-56" target="_L43QnnKGOCju21VZ0w4-38" edge="1">
          <mxGeometry relative="1" as="geometry" />
        </mxCell>
        <mxCell id="_L43QnnKGOCju21VZ0w4-56" value="&lt;br&gt;判断是否是最高审核层级" style="rhombus;whiteSpace=wrap;html=1;fillColor=#fff2cc;strokeColor=#d6b656;" parent="_L43QnnKGOCju21VZ0w4-36" vertex="1">
          <mxGeometry x="70" y="200" width="100" height="70" as="geometry" />
        </mxCell>
        <mxCell id="_L43QnnKGOCju21VZ0w4-44" style="edgeStyle=orthogonalEdgeStyle;rounded=0;orthogonalLoop=1;jettySize=auto;html=1;exitX=1;exitY=0.5;exitDx=0;exitDy=0;" parent="1" source="_L43QnnKGOCju21VZ0w4-2" target="_L43QnnKGOCju21VZ0w4-8" edge="1">
          <mxGeometry relative="1" as="geometry" />
        </mxCell>
        <mxCell id="_L43QnnKGOCju21VZ0w4-48" style="edgeStyle=orthogonalEdgeStyle;rounded=0;orthogonalLoop=1;jettySize=auto;html=1;exitX=0.5;exitY=1;exitDx=0;exitDy=0;entryX=0;entryY=0.5;entryDx=0;entryDy=0;strokeWidth=3;" parent="1" source="_L43QnnKGOCju21VZ0w4-13" target="_L43QnnKGOCju21VZ0w4-27" edge="1">
          <mxGeometry relative="1" as="geometry">
            <Array as="points">
              <mxPoint x="295" y="1190" />
              <mxPoint x="420" y="1190" />
              <mxPoint x="420" y="955" />
            </Array>
          </mxGeometry>
        </mxCell>
        <mxCell id="_L43QnnKGOCju21VZ0w4-54" style="edgeStyle=orthogonalEdgeStyle;rounded=0;orthogonalLoop=1;jettySize=auto;html=1;exitX=0;exitY=0.5;exitDx=0;exitDy=0;strokeWidth=3;" parent="1" source="_L43QnnKGOCju21VZ0w4-53" edge="1">
          <mxGeometry relative="1" as="geometry">
            <mxPoint x="451" y="1714" as="sourcePoint" />
            <mxPoint x="460" y="1165" as="targetPoint" />
            <Array as="points">
              <mxPoint x="440" y="1714" />
              <mxPoint x="440" y="1165" />
            </Array>
          </mxGeometry>
        </mxCell>
        <mxCell id="_L43QnnKGOCju21VZ0w4-53" value="风控规则引擎" style="rounded=1;whiteSpace=wrap;html=1;fillColor=#f8cecc;strokeColor=#b85450;" parent="1" vertex="1">
          <mxGeometry x="480" y="1674" width="147" height="80" as="geometry" />
        </mxCell>
        <mxCell id="_L43QnnKGOCju21VZ0w4-55" style="edgeStyle=orthogonalEdgeStyle;rounded=0;orthogonalLoop=1;jettySize=auto;html=1;exitX=1;exitY=0.5;exitDx=0;exitDy=0;entryX=0;entryY=0.5;entryDx=0;entryDy=0;strokeWidth=3;" parent="1" source="_L43QnnKGOCju21VZ0w4-51" target="_L43QnnKGOCju21VZ0w4-37" edge="1">
          <mxGeometry relative="1" as="geometry">
            <mxPoint x="850" y="955" as="targetPoint" />
            <Array as="points">
              <mxPoint x="950" y="1610" />
              <mxPoint x="950" y="955" />
            </Array>
          </mxGeometry>
        </mxCell>
        <mxCell id="YV3tWDn8nTRbXY4S43q--15" value="" style="line;strokeWidth=3;direction=south;html=1;perimeter=backbonePerimeter;points=[];outlineConnect=0;dashed=1;fillColor=#e3c800;strokeColor=#B09500;fontColor=#000000;" parent="1" vertex="1">
          <mxGeometry x="910" y="1010" width="10" height="640" as="geometry" />
        </mxCell>
        <mxCell id="YV3tWDn8nTRbXY4S43q--18" value="" style="line;strokeWidth=3;html=1;perimeter=backbonePerimeter;points=[];outlineConnect=0;dashed=1;fillColor=#e3c800;strokeColor=#B09500;fontColor=#000000;" parent="1" vertex="1">
          <mxGeometry x="440" y="1340" width="170" height="10" as="geometry" />
        </mxCell>
        <mxCell id="YV3tWDn8nTRbXY4S43q--20" value="" style="line;strokeWidth=3;html=1;perimeter=backbonePerimeter;points=[];outlineConnect=0;dashed=1;fillColor=#e3c800;strokeColor=#B09500;fontColor=#000000;" parent="1" vertex="1">
          <mxGeometry x="450" y="1650" width="480" height="10" as="geometry" />
        </mxCell>
      </root>
    </mxGraphModel>
  </diagram>
</mxfile>
